# xmcd
#
# Track frame offsets: 
#        150
#        12817
#        26728
#        38811
#        52589
#        66414
#        79896
#        93587
#        107423
#        123074
#        135835
#        148159
#        159631
#        170938
#        182811
#        207658
#        223371
#        236026
#        247500
#        259761
#        273292
#        284321
#        299560
#        309788
#        320625
#        331909
#
# Disc length: 4628 seconds
#
# Revision: 0
# Processed by: cddbd v1.5.1PL2 Copyright (c) Steve Scherf et al.
# Submitted via: ExactAudioCopy v0.95b3
#
DISCID=7f12121a
DTITLE=Various Artist - Windswept-Trio-Quartet Sampler [CD1]
DYEAR=2004
DGENRE=Pop/Rock
TTITLE0=Wynonie Harris - Good Rockin' Tonight
TTITLE1=Frank Sinatra - The Huckle-Buck
TTITLE2=Wynonie Harris - Sittin' On It All The Time
TTITLE3=Wayne Raney - Why Don't You Haul Off And Love Me?
TTITLE4=Bing Crosby - Beyond The Reef
TTITLE5=Roy Brown - Cadillac Baby
TTITLE6=Roy Brown - Hard Luck Blues
TTITLE7=Moon Mullican - I'll Sail My Ship Alone
TTITLE8=Tony Bennett - Maybe This Time
TTITLE9=Tiny Bradshaw - Train Kept A Rollin'
TTITLE10=Wynonie Harris - Bloodshot Eyes
TTITLE11=The Dominoes - Sixty Minute Man
TTITLE12=Bull Moose Jackson - Big Ten Inch Record
TTITLE13=The Swallows - It Ain't The Meat (It's The Motion)
TTITLE14=Joe Williams - Everyday (I Have The Blues)
TTITLE15=Eartha Kitt - Santa Baby
TTITLE16=Hank Ballard and The Midnighters - Work With Me Annie
TTITLE17=Hank Ballard and The Midnighters - Sexy Ways
TTITLE18=Porter Wagoner - A Satisfied Mind
TTITLE19=Etta James - Dance With Me Henry (Wallflower)
TTITLE20=George Jones - Why Baby Why
TTITLE21=Ray Charles - Drown In My Own Tears
TTITLE22=Jim Lowe - Green Door
TTITLE23=The Big Bopper - Chantilly Lace
TTITLE24=Ray Charles - Deed I Do
TTITLE25=Peggy Lee - Fever
EXTD=
EXTT0=
EXTT1=
EXTT2=
EXTT3=
EXTT4=
EXTT5=
EXTT6=
EXTT7=
EXTT8=
EXTT9=
EXTT10=
EXTT11=
EXTT12=
EXTT13=
EXTT14=
EXTT15=
EXTT16=
EXTT17=
EXTT18=
EXTT19=
EXTT20=
EXTT21=
EXTT22=
EXTT23=
EXTT24=
EXTT25=
PLAYORDER=
